# xmcd
#
# Track frame offsets:
#	150
#	19642
#	35312
#	55262
#	70187
#	88337
#	101612
#	115410
#	133030
#	150955
#	167223
#	184167
#	199317
#	217167
#	234865
#	248440
#	265982
#
# Disc length: 3780 seconds
#
# Revision: 1
# Processed by: cddbd v1.5.2PL0 Copyright (c) Steve Scherf et al.
# Submitted via: audiograbber 1.83.01
#
DISCID=ea0ec211
DTITLE=Various Artist - All-Country Karaoke AC-04
DYEAR=1900
DGENRE=Karaoke
TTITLE0=Miranda Lambert - White Liar
TTITLE1=Lady Antebellum - American Honey
TTITLE2=Carrie Underwood - Temporary Home
TTITLE3=Brad Paisley - American Saturday Night
TTITLE4=Taylor Swift - Fearless
TTITLE5=Luke Bryan - Rain Is A Good Thing
TTITLE6=Craig Morgan - Bonfire
TTITLE7=Keith Urban - Til Summer Comes Around
TTITLE8=Miranda Lambert - The House That Built Me
TTITLE9=Martina McBride - Wrong Baby Wrong
TTITLE10=Billy Currington - That's How Country Boys Roll
TTITLE11=Alan Jackson - It's Just That Way
TTITLE12=Carrie Underwood - Mama's Song
TTITLE13=Luke Bryan - Do I
TTITLE14=Perry Band - Hip To My Heart
TTITLE15=Bomshel - 19 and Crazy [F Solo]
TTITLE16=Bomshel - 19 and Crazy [FF Duet]
EXTD=
EXTT0=
EXTT1=
EXTT2=
EXTT3=
EXTT4=
EXTT5=
EXTT6=
EXTT7=
EXTT8=
EXTT9=
EXTT10=
EXTT11=
EXTT12=
EXTT13=
EXTT14=
EXTT15=
EXTT16=
PLAYORDER=
